<?xml version="1.0" standalone="no"?>
<!DOCTYPE svg PUBLIC "-//W3C//DTD SVG 20010904//EN"
 "http://www.w3.org/TR/2001/REC-SVG-20010904/DTD/svg10.dtd">
<svg version="1.0" xmlns="http://www.w3.org/2000/svg"
 width="300.000000pt" height="247.000000pt" viewBox="0 0 300.000000 247.000000"
 preserveAspectRatio="xMidYMid meet">
<metadata>
Created by potrace 1.10, written by Peter Selinger 2001-2011
</metadata>
<g transform="translate(0.000000,247.000000) scale(0.100000,-0.100000)"
fill="#000000" stroke="none">
<path d="M1475 2441 c-188 -54 -328 -205 -361 -389 -7 -42 -13 -102 -13 -132
-1 -133 59 -291 148 -391 45 -51 48 -56 34 -74 -28 -37 -101 -199 -118 -265
-22 -84 -31 -310 -16 -393 16 -84 48 -180 82 -249 16 -32 29 -60 29 -63 0 -3
-20 -5 -44 -5 -24 0 -78 -7 -120 -15 -189 -36 -250 -114 -130 -166 75 -34 185
-49 348 -49 146 0 153 -1 174 -23 29 -31 28 -44 -5 -60 -65 -33 -138 -42 -328
-42 -186 1 -294 12 -405 41 -83 22 -255 29 -347 14 -141 -22 -243 -77 -243
-129 0 -28 18 -27 31 3 14 29 65 59 144 82 81 25 313 26 400 2 118 -32 220
-43 425 -43 229 0 308 14 358 64 l25 26 104 -52 c139 -70 250 -96 408 -96 251
0 465 87 640 258 190 186 280 400 279 665 0 150 -24 259 -84 388 l-41 86 30
56 c63 119 101 314 81 420 -6 30 -11 73 -13 94 -2 33 -7 43 -35 59 -19 11 -48
23 -65 26 -18 4 -33 13 -34 21 -1 8 -5 37 -8 63 -13 100 -139 186 -284 195
-62 3 -80 1 -93 -12 -21 -20 -27 -20 -51 2 -17 15 -43 17 -276 14 l-257 -3
-12 34 c-7 19 -23 39 -38 45 -39 19 -247 14 -319 -7z m317 -28 c23 -20 23 -39
1 -52 -14 -7 -15 -13 -6 -22 6 -6 16 -8 21 -5 6 3 131 7 277 8 l267 3 23 -27
c56 -66 91 -266 74 -429 -9 -91 -33 -200 -50 -229 -24 -43 -23 -42 -84 -25
-68 20 -75 15 -75 -56 0 -61 -42 -207 -82 -287 -34 -68 -99 -135 -126 -130
-18 4 -18 0 -13 255 2 104 -8 143 -42 171 -13 11 -13 18 0 55 24 66 28 200 9
282 -52 221 -225 400 -421 436 -78 14 -148 5 -226 -32 -53 -24 -60 -25 -39 -8
53 45 183 99 275 113 61 9 198 -4 217 -21z m-167 -102 c226 -79 378 -350 336
-597 -25 -141 -102 -248 -219 -302 -76 -35 -189 -36 -274 -3 -219 85 -367 349
-329 584 43 262 252 399 486 318z m1030 -10 c88 -43 114 -80 128 -177 12 -90
-2 -256 -32 -372 -24 -90 -75 -218 -101 -252 -18 -24 -19 -24 -54 -8 -43 21
-113 83 -121 108 -3 10 4 33 15 53 30 51 50 173 50 312 0 144 -20 260 -55 329
l-25 49 65 -6 c46 -3 86 -14 130 -36z m-192 -28 c35 -82 42 -128 42 -308 0
-148 -3 -191 -19 -242 -18 -61 -39 -93 -49 -76 -3 5 3 40 14 77 51 188 41 414
-26 569 -5 12 -3 17 7 17 8 0 22 -17 31 -37z m435 -235 c25 -13 33 -64 8 -55
-8 3 -31 9 -50 13 -33 6 -36 9 -36 40 0 32 1 33 28 24 15 -6 37 -16 50 -22z
m12 -88 c33 -18 32 -159 -1 -296 -18 -74 -76 -195 -112 -233 -56 -59 -92 -59
-123 0 -15 30 -14 33 21 100 63 120 115 306 115 411 l0 41 41 -7 c23 -4 49
-11 59 -16z m-620 -341 c0 -44 -44 -257 -55 -268 -24 -24 -25 -9 -3 54 11 33
25 97 31 143 6 45 15 82 19 82 4 0 8 -5 8 -11z m154 -90 c-7 -47 -13 -65 -26
-67 -14 -3 -15 2 -8 35 4 21 11 61 15 88 6 43 9 47 17 29 6 -14 7 -46 2 -85z
m-104 71 c0 -40 -34 -206 -43 -212 -6 -4 -13 -6 -14 -4 -3 3 26 191 32 214 5
14 25 16 25 2z m49 -76 c-11 -69 -30 -117 -43 -103 -8 9 24 173 36 180 7 4 14
7 15 5 2 -2 -2 -38 -8 -82z m-464 -172 c-56 -245 -53 -235 -64 -228 -26 17
-20 66 29 250 67 246 59 225 71 203 7 -12 -3 -75 -36 -225z m575 183 c7 -9 11
-17 9 -18 -2 -1 -12 -9 -21 -16 -16 -12 -18 -10 -18 18 0 34 11 39 30 16z
m-511 -192 l-13 -150 -33 -22 c-18 -11 -33 -20 -33 -18 0 2 16 74 35 160 19
86 35 166 35 179 0 16 3 19 11 11 8 -8 7 -53 -2 -160z m-126 32 c-19 -66 -38
-129 -43 -140 -8 -19 -8 -19 -17 4 -13 33 36 203 68 237 12 13 24 23 25 21 1
-1 -13 -56 -33 -122z m703 111 c10 -8 17 -16 14 -18 -3 -2 -84 -51 -180 -108
-96 -57 -194 -116 -217 -132 -23 -15 -44 -28 -47 -28 -3 0 7 19 21 43 22 35
57 61 202 149 97 59 179 108 182 108 3 0 14 -6 25 -14z m-1217 -38 c12 -13 69
-130 126 -261 96 -222 101 -238 84 -248 -16 -8 -21 -6 -28 13 -5 13 -55 129
-111 258 -56 129 -104 241 -107 248 -8 19 10 14 36 -10z m1289 -10 c2 -10
-213 -149 -688 -442 -381 -235 -693 -426 -694 -424 -2 1 -8 13 -15 25 -10 20
5 31 317 219 180 109 491 298 692 420 201 122 370 221 375 220 6 -2 11 -9 13
-18z m-1233 -266 c99 -233 106 -255 91 -270 -8 -9 -17 -14 -19 -11 -1 2 -48
119 -104 259 -75 188 -99 258 -91 268 6 7 12 11 13 10 2 -2 51 -117 110 -256z
m386 183 l-19 -60 -16 39 c-9 21 -16 42 -16 45 0 7 62 41 67 37 1 -1 -6 -29
-16 -61z m1047 40 c-2 -8 -340 -226 -751 -486 -692 -436 -750 -471 -765 -455
-10 10 -13 19 -7 24 6 5 190 121 410 257 220 137 535 332 700 435 165 103 312
190 326 193 15 4 37 18 50 31 24 25 43 25 37 1z m-1283 -203 c68 -155 83 -197
74 -208 -7 -8 -16 -13 -21 -12 -7 3 -61 120 -194 425 -5 9 1 9 24 1 27 -11 40
-33 117 -206z m1123 177 c-2 -5 -313 -202 -693 -438 -610 -380 -691 -428 -703
-413 -6 9 -9 19 -4 24 4 4 316 199 692 432 509 315 688 421 698 413 7 -5 11
-14 10 -18z m-1121 -11 c5 -7 42 -83 82 -168 66 -143 71 -156 55 -167 -21 -16
-34 -17 -34 -3 0 6 -32 81 -71 168 -39 86 -73 163 -76 170 -3 7 3 12 15 12 11
0 24 -6 29 -12z m212 -117 c58 -117 67 -151 40 -151 -7 0 -139 262 -139 276 0
2 8 4 18 4 13 0 35 -36 81 -129z m-413 -128 c51 -130 91 -240 88 -245 -29 -47
-131 137 -174 317 -19 76 -27 186 -14 172 4 -3 48 -113 100 -244z m299 215 c7
-18 38 -84 68 -146 53 -108 54 -113 35 -123 -11 -6 -21 -9 -22 -7 -1 2 -34 72
-73 156 -71 150 -71 152 -47 152 19 0 28 -8 39 -32z m1225 -7 c-1 -8 -1478
-935 -1495 -939 -14 -3 -29 28 -18 38 4 4 91 59 193 122 102 64 435 274 740
467 493 311 556 348 568 334 6 -9 12 -19 12 -22z m22 -46 c0 -8 1 -20 2 -25 1
-6 -327 -219 -729 -474 -684 -436 -731 -464 -748 -449 -9 9 -16 20 -15 25 3 9
1467 935 1481 937 4 1 8 -6 9 -14z m-1653 -120 c22 -93 73 -212 118 -278 14
-20 24 -39 22 -40 -30 -24 -81 -47 -90 -41 -20 12 -67 127 -84 210 -14 64 -16
101 -10 180 8 109 11 107 44 -31z m1676 34 c4 -12 3 -25 -2 -29 -6 -7 -775
-502 -1354 -872 l-55 -35 -25 20 c-13 11 -19 22 -14 23 14 5 1408 893 1420
905 14 14 23 11 30 -12z m-901 -40 c12 -3 -124 -91 -382 -246 -221 -134 -407
-244 -414 -245 -7 -2 -14 6 -15 17 -3 17 61 59 367 244 203 123 378 229 387
236 10 8 22 10 28 5 5 -4 19 -9 29 -11z m252 -510 c-471 -313 -675 -444 -686
-438 -59 30 -89 8 648 481 635 407 698 445 703 425 5 -20 -65 -69 -665 -468z
m-1093 378 c8 -67 41 -161 72 -209 l25 -37 -22 -15 c-27 -19 -39 -10 -69 52
-18 37 -23 70 -27 161 -3 74 -1 112 5 108 6 -4 13 -30 16 -60z m1765 -41 c-60
-39 -619 -406 -890 -585 -334 -220 -369 -240 -392 -231 -14 5 -26 13 -25 17 0
5 294 202 652 439 l652 431 3 -35 c2 -19 2 -35 0 -36z m-25 -98 c-42 -44 -150
-113 -255 -163 -171 -80 -155 -59 62 83 157 103 216 137 218 125 2 -8 -9 -28
-25 -45z m20 -49 c-17 -66 -216 -193 -408 -262 -78 -27 -223 -62 -231 -54 -12
11 154 103 207 114 109 22 335 137 404 204 25 25 34 24 28 -2z m-26 -115 c-36
-116 -381 -260 -692 -289 l-70 -7 45 31 c27 18 58 31 77 31 46 0 168 25 243
49 100 33 300 136 350 180 25 22 48 40 52 41 3 0 1 -16 -5 -36z m-43 -117 c-8
-21 -47 -45 -171 -106 -176 -87 -354 -138 -520 -148 -55 -3 -109 -3 -119 1
-15 6 -13 10 14 26 24 15 57 21 125 25 118 6 234 28 362 70 106 34 242 98 285
133 28 23 33 22 24 -1z m-44 -87 c-34 -64 -251 -163 -460 -211 -96 -22 -324
-35 -384 -22 l-40 9 35 20 c24 14 43 18 64 13 151 -33 451 34 679 151 61 32
112 58 114 59 1 1 -2 -8 -8 -19z m-1521 -82 c16 -24 50 -64 75 -90 l46 -48
-136 0 c-207 0 -386 46 -358 92 18 29 161 69 289 81 22 2 43 4 47 5 4 1 20
-17 37 -40z m1411 -48 c-93 -62 -276 -124 -454 -155 -105 -18 -344 -22 -385
-8 l-23 9 27 18 c24 16 34 17 93 5 180 -33 502 24 702 127 81 41 99 43 40 4z
m-76 -91 c-126 -100 -316 -149 -579 -149 -82 0 -170 5 -195 10 -25 6 -56 13
-69 16 l-24 5 22 15 c18 13 30 14 72 5 64 -14 265 -14 365 0 111 15 249 52
345 92 106 44 110 44 63 6z m-786 -164 c132 -27 351 -19 537 19 29 6 29 5 -5
-10 -111 -51 -322 -76 -457 -54 -104 16 -205 48 -197 61 3 6 16 8 28 5 11 -4
54 -13 94 -21z"/>
<path d="M1537 2154 c-32 -31 -42 -76 -34 -152 11 -105 101 -240 172 -258 115
-29 159 138 78 301 -59 121 -156 169 -216 109z m105 -22 c60 -40 109 -131 116
-218 6 -78 -2 -110 -33 -130 -22 -14 -27 -14 -59 1 -71 34 -129 142 -130 245
-1 106 40 146 106 102z"/>
<path d="M1222 2005 c-98 -111 -11 -385 123 -385 93 0 142 135 98 271 -12 36
-33 70 -63 101 -40 42 -52 48 -87 48 -34 0 -46 -6 -71 -35z m138 -33 c63 -63
87 -179 54 -262 -26 -66 -71 -78 -124 -34 -44 37 -72 98 -78 170 -6 74 0 101
29 137 31 40 72 36 119 -11z"/>
<path d="M1570 1560 c-43 -43 -14 -110 48 -110 59 0 83 72 36 109 -33 26 -58
27 -84 1z m66 -24 c15 -12 17 -18 8 -33 -15 -24 -58 -24 -62 0 -4 18 14 47 27
47 4 0 16 -6 27 -14z"/>
</g>
</svg>
