<?xml version="1.0" standalone="no"?>
<!DOCTYPE svg PUBLIC "-//W3C//DTD SVG 20010904//EN"
 "http://www.w3.org/TR/2001/REC-SVG-20010904/DTD/svg10.dtd">
<svg version="1.0" xmlns="http://www.w3.org/2000/svg"
 width="300.000000pt" height="186.000000pt" viewBox="0 0 300.000000 186.000000"
 preserveAspectRatio="xMidYMid meet">
<metadata>
Created by potrace 1.10, written by Peter Selinger 2001-2011
</metadata>
<g transform="translate(0.000000,186.000000) scale(0.100000,-0.100000)"
fill="#000000" stroke="none">
<path d="M577 1844 c-3 -4 -27 -6 -53 -6 -32 1 -59 -5 -81 -19 -99 -61 -213
-253 -239 -402 -8 -45 -18 -83 -22 -85 -39 -14 -57 -30 -57 -52 0 -19 -7 -27
-30 -35 -22 -7 -31 -17 -33 -38 -3 -24 2 -30 40 -47 98 -43 234 -43 319 1 33
16 39 17 39 4 0 -38 75 -2 177 84 40 34 79 61 86 61 26 0 56 31 63 64 6 36 28
46 100 46 19 0 34 5 34 11 0 8 -14 10 -47 4 -27 -4 -58 -8 -70 -10 -19 -3 -15
6 28 60 27 34 58 82 69 106 21 48 26 119 10 150 -12 22 -52 25 -69 5 -6 -7
-33 -16 -59 -20 -26 -3 -61 -15 -78 -25 l-32 -19 -7 46 c-13 85 -58 145 -88
116z m50 -46 c7 -14 18 -61 24 -105 9 -66 8 -99 -10 -218 -20 -135 -22 -141
-53 -168 -46 -39 -119 -75 -166 -83 -52 -8 -147 12 -178 39 -34 29 -40 84 -19
172 32 142 130 304 218 362 36 23 53 28 107 28 60 0 66 -2 77 -27z m274 -75
c11 -30 -1 -94 -27 -145 -31 -59 -107 -149 -122 -143 -17 6 -62 -31 -62 -51 0
-14 -38 -39 -46 -31 -3 2 2 46 11 98 8 52 15 120 15 152 0 54 2 59 32 77 17
10 54 24 82 31 28 6 60 18 71 25 28 20 34 18 46 -13z m-133 -330 c5 -34 -16
-65 -41 -61 -28 4 -33 32 -12 64 19 30 49 28 53 -3z m-78 -62 c0 -29 -25 -45
-41 -25 -11 14 -10 18 6 30 26 19 35 18 35 -5z m-51 -61 c-17 -11 -29 -3 -29
19 0 28 12 33 28 10 12 -18 12 -23 1 -29z m-429 10 c18 -44 83 -72 169 -72 38
0 78 5 89 11 26 14 35 14 26 0 -13 -22 -126 -67 -182 -74 -93 -10 -237 29
-237 64 0 8 16 20 35 26 28 10 34 16 32 35 -7 46 49 55 68 10z m395 -11 c9
-28 -8 -45 -25 -25 -13 17 -7 46 9 46 5 0 13 -9 16 -21z m-36 -53 c-13 -14
-33 9 -25 30 6 16 8 16 21 -2 8 -12 10 -23 4 -28z"/>
<path d="M1800 1753 c-66 -23 -172 -97 -214 -147 -51 -63 -93 -147 -107 -215
l-12 -58 -39 49 c-93 116 -242 183 -282 126 -35 -50 -13 -132 68 -246 34 -48
62 -103 75 -146 29 -94 28 -96 -19 -96 -85 0 -162 -75 -185 -177 -4 -21 -13
-33 -23 -33 -9 0 -28 -9 -42 -20 -14 -11 -35 -20 -47 -20 -22 0 -22 0 2 25 32
31 32 65 0 95 -30 28 -87 32 -111 8 -13 -12 -22 -13 -44 -5 -35 13 -77 -11
-93 -54 -10 -25 -17 -29 -48 -29 -26 0 -47 -8 -68 -26 -30 -25 -41 -54 -21
-54 6 0 10 6 10 14 0 43 94 60 137 26 14 -11 36 -20 48 -20 14 0 25 -7 28 -20
11 -44 99 -52 112 -10 9 29 42 45 61 29 11 -9 18 -6 35 15 11 14 28 26 37 26
14 0 16 -8 14 -49 -7 -100 46 -237 111 -283 29 -21 44 -23 147 -24 l115 -1
106 -52 c69 -33 120 -51 143 -51 82 0 200 95 247 200 12 28 26 50 29 50 4 0
15 -9 24 -19 32 -36 112 -61 223 -72 105 -10 109 -9 126 12 9 12 17 37 17 56
0 40 -21 62 -107 115 -34 20 -66 45 -72 57 -11 20 -9 21 40 21 40 0 58 5 80
25 58 48 136 39 174 -19 12 -18 25 -24 51 -23 54 2 58 -12 25 -83 -21 -43 -54
-88 -103 -137 -39 -40 -69 -75 -65 -79 3 -4 50 34 102 84 135 128 255 185 329
156 31 -12 7 -96 -41 -146 -25 -26 -25 -28 -7 -34 73 -23 81 -42 39 -88 -36
-38 -108 -68 -182 -74 -35 -2 -63 -9 -63 -15 0 -17 121 -1 178 23 60 26 115
82 110 113 -2 12 -17 31 -35 43 l-31 21 23 24 c13 13 30 46 37 73 12 46 12 49
-11 67 -36 29 -89 24 -183 -16 -14 -5 -18 -2 -18 13 0 11 -6 25 -14 32 -11 9
-12 17 -5 34 9 20 18 22 82 22 55 0 82 5 113 21 84 45 138 138 132 228 l-3 48
-50 -68 -50 -69 -6 117 c-3 64 -8 120 -11 123 -4 3 -58 -19 -122 -50 -64 -30
-116 -54 -116 -52 0 1 15 48 34 104 19 56 30 102 25 102 -20 0 -85 -39 -110
-67 -41 -44 -57 -74 -69 -130 -22 -103 23 -214 112 -271 25 -17 34 -29 31 -43
-8 -30 -89 -15 -133 26 -19 18 -47 35 -61 38 -33 8 -95 -9 -118 -32 -12 -12
-39 -20 -74 -23 l-56 -5 -16 39 c-19 49 -19 83 0 139 11 29 27 51 48 64 38 24
100 113 92 133 -4 12 12 88 22 101 2 3 13 -5 24 -18 75 -80 88 128 18 280 -41
89 -124 169 -233 224 -73 37 -84 40 -174 42 -69 2 -110 -2 -142 -14z m278 -38
c200 -109 198 -415 -4 -604 -86 -81 -157 -113 -260 -119 -109 -6 -172 15 -234
78 -67 66 -93 140 -87 245 2 49 13 103 27 138 46 122 159 233 280 277 83 31
206 24 278 -15z m164 -97 c78 -68 128 -190 128 -313 0 -41 -4 -76 -9 -80 -5
-3 -22 11 -37 31 l-28 36 -14 -62 -14 -62 -30 41 -30 41 17 48 c40 116 28 246
-30 332 -33 49 -33 50 -7 31 15 -11 39 -30 54 -43z m-974 -129 c54 -27 161
-125 187 -172 l18 -35 -27 -56 c-15 -30 -48 -84 -73 -118 l-47 -63 -11 50
c-17 72 -36 112 -88 180 -54 72 -77 124 -77 174 0 65 39 78 118 40z m1321
-341 c-16 -51 -29 -98 -29 -105 0 -7 50 12 125 47 l125 59 1 -87 c0 -48 4
-107 7 -132 l7 -45 49 68 c27 36 51 65 53 63 9 -8 -17 -89 -41 -130 -31 -54
-97 -96 -159 -103 l-42 -4 48 22 c26 12 47 25 47 30 0 13 -5 12 -68 -20 -57
-29 -59 -29 -96 -13 l-38 17 53 19 c57 20 76 32 67 41 -3 3 -31 -6 -63 -20
-68 -30 -73 -30 -97 -8 -26 23 -23 28 22 42 22 7 38 16 35 21 -3 5 -24 2 -47
-6 -49 -17 -52 -14 -69 64 -21 92 15 191 92 248 18 13 36 24 40 24 4 0 -6 -41
-22 -92z m-1061 -50 c105 -152 320 -175 501 -53 l49 33 35 -37 34 -36 -17 -55
-18 -55 -13 45 c-9 33 -14 39 -17 23 -3 -23 27 -131 55 -191 30 -66 53 -91
119 -128 67 -38 84 -57 84 -97 0 -43 -18 -48 -123 -37 -112 11 -160 26 -209
64 -36 26 -36 27 -31 90 8 89 -21 150 -84 178 -41 18 -47 18 -97 4 -29 -9 -65
-25 -79 -36 -24 -19 -28 -20 -56 -6 -16 9 -31 19 -33 24 -5 14 -114 72 -134
72 -23 0 -99 44 -143 82 l-32 27 52 63 c28 35 62 85 76 113 l26 50 11 -45 c7
-25 26 -66 44 -92z m701 90 c17 -23 31 -51 31 -62 0 -12 -19 -43 -41 -69 l-42
-48 -43 42 -43 42 33 37 c18 20 41 51 52 68 10 18 19 32 20 32 1 0 16 -19 33
-42z m-897 -213 c71 -48 113 -180 97 -304 -35 -284 -272 -295 -329 -16 -15 72
-7 161 19 219 17 40 66 86 90 86 6 0 11 5 11 11 0 6 -9 8 -22 4 -21 -5 -21 -5
2 9 38 23 90 20 132 -9z m113 -81 c14 -9 21 -22 18 -30 -8 -22 -21 -17 -38 16
-18 34 -14 37 20 14z m-502 -3 c28 -11 42 -41 32 -69 -7 -24 -47 -42 -74 -35
-24 6 -29 -12 -5 -21 26 -10 13 -50 -17 -54 -35 -4 -65 29 -50 57 16 30 14 32
-17 14 -47 -27 -81 -1 -68 52 9 35 48 52 80 36 21 -12 26 -11 45 8 23 23 38
26 74 12z m607 -36 c28 -14 50 -27 50 -30 0 -13 -25 -55 -33 -55 -5 0 -31 12
-57 27 -48 27 -48 27 -34 55 8 15 17 28 20 28 2 0 27 -11 54 -25z m358 -42
c33 -20 52 -73 51 -135 l-2 -53 -7 60 c-3 33 -14 72 -24 87 -38 58 -127 62
-203 9 -52 -37 -58 -33 -8 5 70 53 138 63 193 27z m-396 -39 c28 -14 60 -27
71 -30 11 -2 25 -9 31 -15 17 -18 -61 -2 -109 22 -44 23 -65 45 -65 68 1 13 2
13 11 -2 6 -9 33 -29 61 -43z m385 4 c30 -28 46 -88 38 -146 -5 -36 -4 -44 5
-32 9 12 10 10 5 -10 -25 -88 -131 -209 -205 -231 -116 -35 -191 59 -161 200
17 78 83 197 103 185 4 -3 21 4 37 16 76 53 134 59 178 18z m-252 10 c29 -13
31 -21 10 -38 -24 -20 -68 6 -54 31 11 22 11 22 44 7z m-161 -53 c10 -8 43
-20 72 -26 52 -12 65 -21 44 -34 -15 -9 -50 -133 -50 -176 0 -22 6 -55 14 -74
l15 -35 -62 31 c-43 22 -77 32 -113 33 l-52 1 28 32 c38 43 70 133 72 204 1
32 4 59 7 59 3 0 14 -7 25 -15z m1136 -70 c0 -10 -52 -55 -64 -55 -3 0 5 22
17 50 19 43 24 47 35 33 6 -9 12 -22 12 -28z"/>
<path d="M1759 1662 c-57 -36 -92 -79 -115 -138 -16 -42 -16 -49 -3 -73 31
-55 119 -31 197 53 46 50 62 82 62 126 0 64 -66 79 -141 32z m119 -29 c9 -96
-167 -239 -218 -178 -30 36 42 154 119 195 20 11 50 19 66 17 26 -2 30 -6 33
-34z"/>
<path d="M2005 1524 c-124 -64 -188 -246 -101 -285 84 -38 236 99 236 213 0
75 -64 109 -135 72z m97 -21 c32 -29 17 -108 -33 -171 -30 -39 -98 -82 -129
-82 -81 0 -68 133 22 216 60 57 105 69 140 37z"/>
<path d="M1671 1234 c-24 -30 -27 -54 -9 -72 31 -31 88 1 88 49 0 52 -46 65
-79 23z m57 -18 c4 -20 -15 -46 -35 -46 -22 0 -27 29 -7 51 20 22 37 20 42 -5z"/>
<path d="M1240 971 c0 -5 14 -11 30 -15 64 -12 102 -86 116 -222 7 -67 24 -88
24 -30 0 49 -27 171 -45 207 -9 16 -30 39 -48 49 -33 21 -77 27 -77 11z"/>
<path d="M869 1474 c-26 -7 -52 -21 -59 -29 -10 -11 -2 -10 31 5 24 11 56 20
72 20 15 0 27 5 27 10 0 13 -15 12 -71 -6z"/>
<path d="M491 645 c-24 -14 -46 -23 -49 -21 -11 11 -42 -16 -42 -37 0 -22 1
-22 20 3 16 20 22 22 29 11 7 -11 10 -11 17 1 12 20 67 48 94 48 15 0 20 -6
20 -25 0 -30 16 -33 23 -5 6 25 -17 50 -46 50 -12 0 -42 -12 -66 -25z"/>
<path d="M886 539 c-16 -13 -28 -34 -32 -58 -5 -32 -12 -41 -46 -56 -64 -28
-102 -109 -76 -162 31 -64 98 -67 154 -8 29 31 34 33 61 23 84 -32 199 56 179
137 -8 30 -61 57 -93 49 -17 -5 -22 0 -28 26 -8 37 -41 70 -71 70 -12 0 -33
-9 -48 -21z m91 -25 c13 -21 15 -32 6 -55 -13 -33 -13 -33 38 -18 32 10 42 9
64 -5 37 -25 33 -61 -14 -107 -31 -32 -46 -39 -77 -39 -24 0 -45 7 -59 20
l-22 20 -24 -37 c-30 -47 -67 -68 -103 -59 -81 20 -38 167 54 182 36 6 38 8
33 38 -3 22 1 39 17 59 28 35 64 36 87 1z"/>
<path d="M2122 383 c-21 -10 -36 -28 -48 -58 -19 -52 -16 -76 13 -90 16 -8 19
-15 12 -26 -17 -26 -9 -60 20 -90 36 -35 75 -38 132 -9 46 24 56 43 42 80 -9
24 -7 28 19 43 38 22 64 82 49 114 -9 19 -18 23 -53 23 -24 -1 -54 -7 -68 -14
-22 -13 -25 -12 -35 6 -15 31 -47 39 -83 21z m75 -44 c6 -23 21 -24 47 -4 26
20 95 20 102 0 11 -27 -16 -73 -53 -90 -26 -13 -33 -21 -27 -33 19 -47 16 -61
-17 -81 -44 -27 -87 -27 -116 1 -34 32 -29 88 8 88 10 0 19 5 19 10 0 6 -11
10 -24 10 -58 0 -68 21 -41 85 23 56 89 65 102 14z"/>
<path d="M1628 196 c-24 -16 -44 -22 -61 -19 -36 7 -90 -46 -85 -84 2 -14 9
-28 15 -31 9 -2 11 5 7 26 -7 35 22 72 56 72 17 0 19 -5 14 -25 -8 -34 8 -32
24 4 17 39 67 63 121 59 31 -2 47 -9 55 -23 6 -11 12 -22 14 -24 1 -3 9 4 17
15 15 19 15 19 30 0 16 -22 31 -16 22 9 -4 9 -19 15 -40 15 -19 0 -40 7 -47
15 -20 24 -101 19 -142 -9z"/>
<path d="M1912 90 c-18 -11 -43 -20 -56 -20 -12 0 -31 -9 -41 -20 -22 -24 -13
-39 10 -16 21 20 45 21 45 1 0 -8 5 -15 10 -15 6 0 10 6 10 14 0 27 50 56 97
56 35 0 49 -6 68 -26 18 -20 25 -23 25 -11 0 8 -12 25 -26 36 -35 27 -98 27
-142 1z"/>
</g>
</svg>
