M48
; DRILL file {KiCad 8.0.3} date 2024-07-27T16:23:04-0400
; FORMAT={-:-/ absolute / inch / decimal}
; #@! TF.CreationDate,2024-07-27T16:23:04-04:00
; #@! TF.GenerationSoftware,Kicad,Pcbnew,8.0.3
; #@! TF.FileFunction,Plated,1,2,PTH
FMAT,2
INCH
; #@! TA.AperFunction,Plated,PTH,ViaDrill
T1C0.0157
; #@! TA.AperFunction,Plated,PTH,ComponentDrill
T2C0.0157
; #@! TA.AperFunction,Plated,PTH,ComponentDrill
T3C0.0866
%
G90
G05
T1
X5.9893Y-3.4863
X6.0336Y-3.4863
X6.0779Y-3.4863
T2
X2.003Y-2.308
X2.022Y-2.2621
X2.022Y-2.354
X2.0679Y-2.2431
X2.0679Y-2.373
X2.1138Y-2.2621
X2.1138Y-2.354
X2.1329Y-2.308
X3.8077Y-4.8092
X3.8267Y-4.7633
X3.8267Y-4.8551
X3.8726Y-4.7442
X3.8726Y-4.8742
X3.9186Y-4.7633
X3.9186Y-4.8551
X3.9376Y-4.8092
X4.5638Y-3.7059
X4.5829Y-3.66
X4.5829Y-3.7519
X4.6288Y-3.641
X4.6288Y-3.7709
X4.6747Y-3.66
X4.6747Y-3.7519
X4.6938Y-3.7059
X4.9644Y-2.6152
X4.9835Y-2.5693
X4.9835Y-2.6611
X5.0294Y-2.5502
X5.0294Y-2.6801
X5.0753Y-2.5693
X5.0753Y-2.6611
X5.0944Y-2.6152
X6.6186Y-2.6152
X6.6376Y-2.5693
X6.6376Y-2.6611
X6.6835Y-2.5502
X6.6835Y-2.6801
X6.7295Y-2.5693
X6.7295Y-2.6611
X6.7485Y-2.6152
X7.0191Y-3.7059
X7.0382Y-3.66
X7.0382Y-3.7519
X7.0841Y-3.641
X7.0841Y-3.7709
X7.13Y-3.66
X7.13Y-3.7519
X7.1491Y-3.7059
X7.7752Y-4.8092
X7.7943Y-4.7633
X7.7943Y-4.8551
X7.8402Y-4.7442
X7.8402Y-4.8742
X7.8861Y-4.7633
X7.8861Y-4.8551
X7.9052Y-4.8092
X9.58Y-2.308
X9.5991Y-2.2621
X9.5991Y-2.354
X9.645Y-2.2431
X9.645Y-2.373
X9.6909Y-2.2621
X9.6909Y-2.354
X9.71Y-2.308
T3
X2.0679Y-2.308
X3.8726Y-4.8092
X4.6288Y-3.7059
X5.0294Y-2.6152
X6.6835Y-2.6152
X7.0841Y-3.7059
X7.8402Y-4.8092
X9.645Y-2.308
M30
